<svg width="833" height="130" viewBox="0 0 833 130" fill="none" xmlns="http://www.w3.org/2000/svg">
<g clip-path="url(#clip0_1_2)">
<path d="M3.05 44H44.94C48.81 44 59.02 53.08 75.58 71.25V72.25C75.58 73.62 66.73 89.75 49.04 120.65C49.04 125.34 48 127.68 45.93 127.68H6.15C5.17 127.68 4.14 126.66 3.04 124.63V118.59L8.14 112.55V58.13C2.71 54.53 0 51.84 0 50.04V47.05C0 46.07 1.02 45.06 3.05 44ZM27.6 59.12V111.56H35.74C50.04 89.88 57.18 77.44 57.18 74.24C50.08 64.16 44.3 59.12 39.84 59.12H27.6V59.12ZM103.59 44H139.92C140.94 44 141.97 45 143.03 46.99V112.38L148.24 118.42V124.46C148.24 125.4 147.2 126.39 145.13 127.45H121.22C120.24 127.45 119.21 126.45 118.11 124.46V118.42L123.32 112.38V96.27H98.42C96.08 97.56 92.27 102.93 86.99 112.38V114.37L90.1 118.41V124.45C90.1 125.39 89.06 126.38 86.99 127.44H63.1C62.12 127.44 61.09 126.44 59.99 124.45V118.41C86.98 77.36 100.48 54.23 100.48 49.03C100.68 45.68 101.71 44 103.59 44ZM104.64 85.2V86.25H123.33V62.11H118.12C109.13 74.18 104.64 81.88 104.64 85.2ZM152.28 44.18H174.72C175.81 44.18 176.95 45.18 178.12 47.17V104.12C178.12 109.78 181.85 114.12 189.31 117.13V124.1C189.31 125.04 188.2 126.03 185.97 127.09H162.42C161.33 127.09 160.19 126.09 159.02 124.1V61.17C152.3 56.99 148.94 53.65 148.94 51.15V47.17C148.94 46.23 150.05 45.23 152.28 44.18V44.18ZM198.06 44.41H220.74C221.68 44.41 222.65 45.41 223.67 47.4V53.44L218.75 59.42V113.5H239.43V110.51L234.51 104.47V102.48C234.51 101.5 235.49 100.51 237.44 99.49H254.2C255.14 99.49 256.11 100.49 257.13 102.48V104.47C253.18 108.53 251.21 111.87 251.21 114.49V124.51C251.21 125.45 250.23 126.44 248.28 127.5H198.07C197.13 127.5 196.16 126.5 195.14 124.51V118.47L200.06 112.49V59.41L195.14 53.43V47.4C195.13 46.46 196.1 45.47 198.06 44.41V44.41ZM244.4 44.18H270.83C271.77 44.18 272.74 45.18 273.76 47.17V52.21C273.76 54.2 272.14 55.2 268.9 55.2C268.9 58.56 273.47 65.59 282.61 76.29C291.71 65.59 296.26 58.56 296.26 55.2C293.02 55.2 291.4 54.2 291.4 52.21V47.17C291.4 46.23 292.38 45.24 294.33 44.18H320.76C321.7 44.18 322.67 45.18 323.69 47.17V52.21C323.69 54.05 320.1 55.39 312.91 56.25C309.82 61.41 302.66 72.11 291.41 88.36V112.44L296.27 118.48V124.52C296.27 125.46 295.29 126.45 293.34 127.51H270.84C269.9 127.51 268.93 126.51 267.91 124.52V118.48L272.77 112.44V89.36C272.77 86 265.27 74.61 250.27 55.2C244.41 55.2 241.48 54.2 241.48 52.21V47.17C241.47 46.23 242.44 45.23 244.4 44.18V44.18ZM375.3 46.41H416.67C422.02 46.41 427.88 55.41 434.25 73.42C427.37 90.76 421.51 99.44 416.67 99.44H400.15V114.5L405.31 120.48V126.52C405.31 127.46 404.27 128.45 402.2 129.51H378.41C377.43 129.51 376.4 128.51 375.3 126.52V120.48L380.46 114.5V60.42C374.95 56.87 372.2 54.21 372.2 52.45V49.4C372.2 48.46 373.23 47.47 375.3 46.41V46.41ZM400.15 63.41V82.45C400.35 83.78 401.03 84.44 402.2 84.44H413.57C415.37 84.44 417.44 80.44 419.78 72.43C417.01 65.09 414.94 61.41 413.57 61.41H402.2C400.83 61.65 400.15 62.31 400.15 63.41V63.41Z" fill="black"/>
<path d="M410.05 22.8C410.05 25.76 410.92 27.38 412.67 27.67C412.55 28.25 412.07 28.54 411.23 28.54C409.52 28.54 408.32 27.52 407.61 25.48C407.28 24.52 407.11 23.36 407.11 21.98C407.11 20.61 407.65 18.94 408.73 16.98C411.23 12.44 415.81 9.51 422.47 8.17C424.84 7.71 427.45 7.48 430.28 7.48C433.11 7.48 435.68 7.15 437.99 6.48C440.3 5.81 442.01 5.06 443.11 4.23C444.21 3.4 445.25 2.65 446.23 1.98C447.21 1.31 448.02 0.980003 448.67 0.980003C449.31 0.980003 449.64 1.27 449.64 1.85C449.64 3.22 448.29 4.62 445.58 6.03C442.87 7.45 439.35 8.36 435.02 8.78C433.23 9.74 431.83 13.13 430.84 18.96C429.72 25.66 428.78 31.14 428.03 35.39C427.28 39.64 426.4 43.27 425.38 46.29C424.81 47.98 424.2 49.55 423.54 51.01C423.02 52.17 422.48 53.26 421.91 54.28C420.62 56.59 418.92 58.44 416.82 59.84C414.72 61.23 412.26 61.93 409.45 61.93C406.64 61.93 404.36 61.01 402.61 59.18C400.69 57.18 399.74 54.48 399.74 51.06C399.74 45.36 401.26 40.98 404.3 37.94C406.13 36.11 408.17 35.19 410.42 35.19C410.96 35.19 411.41 35.32 411.76 35.56C412.11 35.81 412.35 36.18 412.48 36.68C408.94 36.68 406.07 38.51 403.86 42.18C402.24 44.89 401.42 47.7 401.42 50.61C401.42 55.4 403.06 58.31 406.35 59.35C407.1 59.6 407.91 59.72 408.79 59.72C411.37 59.72 413.63 58.66 415.57 56.53C417.51 54.41 418.98 51.72 420 48.47C420.09 48.2 420.17 47.92 420.26 47.65C421.19 44.61 422.08 41.23 422.94 37.51C423.88 33.45 424.66 29.59 425.28 25.92C425.9 22.26 426.75 18.83 427.81 15.65C428.87 12.46 430.09 10.23 431.46 8.94H430.21C421.67 8.94 415.72 11.33 412.35 16.12C410.82 18.35 410.05 20.55 410.05 22.8V22.8Z" fill="black"/>
<path d="M375.3 46.41H416.67C422.02 46.41 427.88 55.41 434.25 73.42C427.37 90.76 421.51 99.44 416.67 99.44H400.15V114.5L405.31 120.48V126.52C405.31 127.46 404.27 128.45 402.2 129.51H378.41C377.43 129.51 376.4 128.51 375.3 126.52V120.48L380.46 114.5V60.42C374.95 56.87 372.2 54.21 372.2 52.45V49.4C372.2 48.46 373.23 47.47 375.3 46.41V46.41ZM400.15 63.41V82.45C400.35 83.78 401.03 84.44 402.2 84.44H413.57C415.37 84.44 417.44 80.44 419.78 72.43C417.01 65.09 414.94 61.41 413.57 61.41H402.2C400.83 61.65 400.15 62.31 400.15 63.41V63.41Z" fill="black"/>
<path d="M421.92 54.31C420.63 56.62 418.93 58.47 416.83 59.87C414.73 61.26 412.27 61.96 409.46 61.96C406.65 61.96 404.37 61.04 402.62 59.21C400.7 57.21 399.75 54.51 399.75 51.09C399.75 45.39 401.27 41.01 404.31 37.97C406.14 36.14 408.18 35.22 410.43 35.22C410.97 35.22 411.42 35.35 411.77 35.59C412.12 35.84 412.36 36.21 412.49 36.71C408.95 36.71 406.08 38.54 403.87 42.21C402.25 44.92 401.43 47.73 401.43 50.64C401.43 55.43 403.07 58.34 406.36 59.38C407.11 59.63 407.92 59.75 408.8 59.75C411.38 59.75 413.64 58.69 415.58 56.56C417.52 54.47 422.49 53.29 421.92 54.31V54.31Z" fill="black"/>
<path d="M370.3 44.41H411.67C417.02 44.41 422.88 53.41 429.25 71.42C422.37 88.76 416.51 97.44 411.67 97.44H395.15V112.5L400.31 118.48V124.52C400.31 125.46 399.27 126.45 397.2 127.51H373.41C372.43 127.51 371.4 126.51 370.3 124.52V118.48L375.46 112.5V58.42C369.95 54.87 367.2 52.21 367.2 50.45V47.4C367.2 46.46 368.23 45.47 370.3 44.41V44.41ZM395.15 61.41V80.45C395.35 81.78 396.03 82.44 397.2 82.44H408.57C410.37 82.44 412.44 78.44 414.78 70.43C412.01 63.09 409.94 59.41 408.57 59.41H397.2C395.83 59.65 395.15 60.31 395.15 61.41V61.41Z" fill="#FBB03B"/>
<path d="M409.38 59.77C409.15 59.79 409.04 59.77 408.81 59.77C407.94 59.77 407.12 59.65 406.37 59.4C403.08 58.36 401.44 55.44 401.44 50.66C401.44 47.75 402.25 44.94 403.88 42.23C406.09 38.57 408.96 36.73 412.5 36.73C412.38 36.23 412.14 35.86 411.78 35.61C411.43 35.36 410.98 35.24 410.44 35.24C408.19 35.24 406.15 36.16 404.32 37.99C401.28 41.03 399.76 45.4 399.76 51.11C399.76 54.52 400.72 57.23 402.63 59.23C404.38 61.06 406.66 61.98 409.47 61.98C410.03 61.98 410.47 61.98 411 61.91C410.91 61.72 409.54 60.17 409.38 59.77V59.77Z" fill="black"/>
<path d="M432.64 44.41H472.6C477.79 44.41 483.46 53.36 489.59 71.25L478.64 95.1C478.64 96.82 486.63 105.08 502.6 119.89V123.87C502.6 124.85 501.6 125.84 499.61 126.86H478.63C477.65 126.86 476.66 125.86 475.64 123.87V120.88L476.64 114.96C467.65 103.01 460.97 97.03 456.6 97.03V111.97L461.64 117.89V123.87C461.64 124.85 460.64 125.84 458.65 126.86H435.62C434.68 126.86 433.69 125.86 432.63 123.87V117.89L437.61 111.97V58.3C432.3 54.78 429.64 52.15 429.64 50.39V47.4C429.66 46.43 430.65 45.43 432.64 44.41V44.41ZM456.61 61.29V80.16C456.84 81.49 457.53 82.15 458.66 82.15H469.62C471.34 82.15 473.35 78.19 475.66 70.26C472.96 62.96 470.95 59.3 469.62 59.3H458.66C457.29 59.53 456.61 60.2 456.61 61.29ZM539.37 44.41C544.41 44.41 548.92 52.38 552.91 68.32C554.59 69.69 556.84 75.33 559.65 85.25V86.25C550.51 113.48 544.4 127.09 541.31 127.09H516.23C511.19 127.09 506.68 119.12 502.69 103.18C501.01 101.81 498.76 96.17 495.95 86.25V85.25C505.09 58.02 511.2 44.41 514.29 44.41H539.37V44.41ZM509.49 86.25C514.61 101.52 517.81 109.16 519.1 109.16H536.5C537.94 109.16 541.15 101.19 546.11 85.25C540.99 69.98 537.79 62.34 536.5 62.34H519.1C517.65 62.34 514.45 70.31 509.49 86.25Z" fill="black"/>
<path d="M560.1 44.41H601.47C606.82 44.41 612.68 53.41 619.05 71.42C612.17 88.76 606.31 97.44 601.47 97.44H584.95V112.5L590.11 118.48V124.52C590.11 125.46 589.07 126.45 587 127.51H563.2C562.22 127.51 561.19 126.51 560.09 124.52V118.48L565.25 112.5V58.42C559.74 54.87 556.99 52.21 556.99 50.45V47.4C556.99 46.46 558.03 45.47 560.1 44.41ZM584.94 61.41V80.45C585.14 81.78 585.82 82.44 586.99 82.44H598.36C600.16 82.44 602.23 78.44 604.57 70.43C601.8 63.09 599.73 59.41 598.36 59.41H586.99C585.62 59.65 584.94 60.31 584.94 61.41V61.41ZM624.26 44.59H647.99C649.01 44.59 650.04 45.59 651.1 47.58V53.56L645.94 59.6V78.58H665.57V59.59L660.41 53.55V47.57C660.41 46.63 661.44 45.64 663.52 44.58H687.25C688.23 44.58 689.26 45.58 690.36 47.57V53.55L685.2 59.59V112.5L690.36 118.54V124.52C690.36 125.46 689.32 126.45 687.25 127.51H663.52C662.5 127.51 661.47 126.51 660.41 124.52V118.54L665.57 112.5V88.54H645.94V112.5L651.1 118.54V124.52C651.1 125.46 650.06 126.45 647.99 127.51H624.26C623.28 127.51 622.25 126.51 621.15 124.52V118.54L626.31 112.5V59.59L621.15 53.55V47.57C621.16 46.64 622.19 45.64 624.26 44.59V44.59ZM698.34 44.41H758.52C759.5 44.41 760.53 45.41 761.63 47.4V60.47C761.63 62.46 760.24 63.46 757.47 63.46C756.8 63.46 754.38 61.8 750.2 58.48H720.14V78.52H748.15L750.2 77.52L752.31 80.51V87.54L750.2 90.59C747.93 89.22 745.86 88.54 743.99 88.54H720.14V113.62H749.2C752.75 110.3 755.86 108.64 758.52 108.64L760.57 111.63V124.7C760.57 125.64 759.53 126.63 757.46 127.69H698.34C697.36 127.69 696.33 126.69 695.23 124.7V118.66L700.44 112.62V59.47L695.23 53.43V47.4C695.23 46.46 696.26 45.47 698.34 44.41V44.41ZM770.78 44.18H829.49C830.43 44.18 831.42 45.18 832.48 47.17V62.23C832.48 63.21 831.48 64.22 829.49 65.28H827.5C825.62 65.28 821.97 62.6 816.54 57.25C815.45 56.59 813.79 56.25 811.56 56.25H808.57V112.44L813.55 118.48V124.52C813.55 125.46 812.55 126.45 810.56 127.51H787.71C786.73 127.51 785.74 126.51 784.72 124.52V118.48L789.7 112.44V56.25H788.7C783.58 56.25 779.27 59.26 775.75 65.27H770.77C769.83 65.27 768.84 64.25 767.78 62.22V47.17C767.79 46.23 768.79 45.23 770.78 44.18V44.18Z" fill="black"/>
<path d="M440.34 28.73C439.2 30.8 438.31 32.64 437.67 34.23C437.03 35.83 436.72 36.77 436.72 37.06C436.72 37.35 436.57 37.5 436.27 37.5C435.62 37.5 435.3 36.64 435.3 34.91C435.3 31.48 435.65 28.03 436.34 24.57C437.03 21.11 437.85 18.33 438.8 16.25C439.75 14.17 440.63 13.13 441.45 13.13C441.8 13.13 441.97 13.3 441.97 13.65C440.83 16.18 439.87 19.06 439.1 22.29C438.33 25.53 437.69 28.98 437.17 32.65H437.4C440.14 25.92 442.83 22.55 445.46 22.55C446.56 22.55 447.11 23.08 447.11 24.14C446.96 24.64 446.76 25.29 446.53 26.1C446.29 26.91 445.98 28.36 445.59 30.45C445.2 32.54 445.01 34.38 445.01 35.95C445.01 38.24 445.34 39.38 446.01 39.38C446.25 39.38 446.48 39.28 446.72 39.07C446.96 38.86 447.12 38.76 447.21 38.76C447.51 38.76 447.5 39 447.18 39.47C447.09 39.62 446.9 39.83 446.61 40.08C446.32 40.34 446.03 40.47 445.75 40.47C444.91 40.47 444.26 39.88 443.79 38.71C443.33 37.53 443.09 36.01 443.09 34.13C443.09 30.96 443.56 27.69 444.51 24.32C444.55 24 444.42 23.86 444.12 23.9C443.97 23.92 443.82 24.01 443.67 24.16C442.59 25.13 441.48 26.66 440.34 28.73V28.73ZM457.65 22.41C459.29 22.41 460.11 23.37 460.11 25.29C460.11 26.39 459.74 27.55 459.01 28.75C457.76 30.76 456.1 31.76 454.02 31.76C453.7 31.76 453.43 31.71 453.21 31.6C452.99 31.49 452.83 31.33 452.72 31.11C454.25 31.11 455.65 30.23 456.93 28.46C457.97 27.04 458.48 25.73 458.48 24.54C458.48 23.66 458.12 23.21 457.41 23.21C455.99 23.21 454.66 24.32 453.43 26.54C452.11 28.96 451.46 31.44 451.46 33.99C451.46 36.15 452.07 37.44 453.31 37.87C453.55 37.96 453.85 38 454.22 38C454.59 38 454.98 37.91 455.39 37.72C455.8 37.54 456.15 37.32 456.43 37.06C456.99 36.54 457.45 35.97 457.82 35.34C457.91 35.17 458.07 35.08 458.31 35.08C458.7 35.08 458.88 35.14 458.86 35.27C458.8 35.51 458.55 35.91 458.13 36.47C457.71 37.03 457.32 37.48 456.96 37.81C456.6 38.14 456.14 38.45 455.57 38.72C455 38.99 454.42 39.12 453.84 39.12C451.55 39.12 450.1 38.04 449.47 35.88C449.28 35.15 449.18 34.39 449.18 33.61C449.18 32.16 449.51 30.59 450.18 28.88C451.24 26.29 452.69 24.42 454.55 23.28C455.56 22.72 456.6 22.41 457.65 22.41V22.41Z" fill="black"/>
</g>
<defs>
<clipPath id="clip0_1_2">
<rect width="832.48" height="129.5" fill="white"/>
</clipPath>
</defs>
</svg>
